<?xml version="1.0" encoding="UTF-8"?>
<!-- Generator: Adobe Illustrator 20.0.0, SVG Export Plug-In . SVG Version: 6.00 Build 0)  -->
<!DOCTYPE svg PUBLIC "-//W3C//DTD SVG 1.1//EN" "http://www.w3.org/Graphics/SVG/1.1/DTD/svg11.dtd">
<svg version="1.1" id="Layer_1" xmlns="http://www.w3.org/2000/svg" xmlns:xlink="http://www.w3.org/1999/xlink" x="0px" y="0px" viewBox="0 0 14 13" style="enable-background:new 0 0 14 13;" xml:space="preserve">
<style type="text/css">
	.st0{fill:#FFFFFF;}
</style>
<title>login</title>
<desc>Created with Sketch.</desc>
<path class="st0" d="M9.1,6.5c0.1,0,0.3-0.1,0.4-0.2c1.4-1.3,1.4-3.5,0-4.8c0,0-0.1-0.1-0.1-0.1c-1.3-1.3-3.5-1.3-4.9,0  c-1.4,1.3-1.4,3.5,0,4.8c0.1,0.1,0.3,0.3,0.4,0.3C2.3,7.4,0.5,9.8,0.5,13h1c0-3.4,2.4-5.8,5.5-5.8s5.5,2.4,5.5,5.8h1  C13.5,9.8,11.7,7.4,9.1,6.5z M7,6.2C6.4,6.2,5.7,6,5.2,5.5c-1-0.9-1-2.4,0-3.3c1-0.9,2.6-0.9,3.6,0c1,0.9,1,2.4,0,3.3  C8.3,6,7.6,6.2,7,6.2z"/>
</svg>